<?xml version="1.0" encoding="utf-8"?>
<!-- Generator: Adobe Illustrator 16.0.0, SVG Export Plug-In . SVG Version: 6.00 Build 0)  -->
<!DOCTYPE svg PUBLIC "-//W3C//DTD SVG 1.1//EN" "http://www.w3.org/Graphics/SVG/1.1/DTD/svg11.dtd">
<svg version="1.1" id="Шар_1" xmlns="http://www.w3.org/2000/svg" xmlns:xlink="http://www.w3.org/1999/xlink" x="0px" y="0px"
	 width="50px" height="50px" viewBox="935 501 50 50" enable-background="new 935 501 50 50" xml:space="preserve">
<circle fill="#C60C0E" cx="960" cy="516.331" r="2.955"/>
<path fill="#C60C0E" d="M964.238,527.816c0.619,0,1.024-0.721,0.901-1.602l-0.616-4.427c-0.123-0.881-0.951-1.603-1.841-1.603
	h-5.366c-0.89,0-1.718,0.721-1.841,1.603l-0.616,4.427c-0.123,0.881,0.283,1.602,0.901,1.602s1.179,0.727,1.245,1.614l0.566,7.579
	c0.066,0.888,0.849,1.614,1.738,1.614h1.38c0.891,0,1.673-0.727,1.738-1.614l0.566-7.579
	C963.061,528.543,963.62,527.816,964.238,527.816z"/>
</svg>
